<svg width="400" height="400" viewBox="0 0 400 400" fill="none" xmlns="http://www.w3.org/2000/svg">
  <path
    d="M200.001 342.36C303.094 342.36 386.667 336.39 386.667 329.027C386.667 321.663 303.094 315.693 200.001 315.693C96.9075 315.693 13.334 321.663 13.334 329.027C13.334 336.39 96.9075 342.36 200.001 342.36Z"
    fill="#D2E3FF" />
  <path
    d="M380.104 111.036H287.232C287.232 111.036 296.441 85.8848 310.613 85.8848C324.785 85.8848 329.224 103.245 329.224 103.245C329.224 103.245 338.786 93.813 346.639 93.813C354.494 93.813 361.323 106.277 361.323 106.277C361.323 106.277 372.421 99.5742 380.104 111.036Z"
    fill="#D2E3FF" />
  <path
    d="M116.532 106.41H73.1309C73.1309 106.41 82.8291 92.3594 90.4693 92.3594C98.1104 92.3594 100.368 101.727 100.368 101.727C100.368 101.727 105.76 97.3558 110.756 98.1361C115.752 98.9165 116.532 106.41 116.532 106.41Z"
    fill="#D2E3FF" />
  <path
    d="M361.317 153.215H317.916C317.916 153.215 327.614 139.164 335.254 139.164C342.895 139.164 345.153 148.532 345.153 148.532C345.153 148.532 350.545 144.16 355.541 144.941C360.536 145.72 361.317 153.215 361.317 153.215Z"
    fill="#D2E3FF" />
  <path
    d="M103.206 141.616H18.668C18.668 141.616 30.2453 115.77 42.6292 114.154C55.0139 112.538 60.9367 133.359 60.9367 133.359C60.9367 133.359 68.924 126 75.2062 126C81.4885 126 86.3347 135.693 86.3347 135.693C86.3347 135.693 98.8983 129.051 103.206 141.616Z"
    fill="#D2E3FF" />
  <path
    d="M237.094 116.754V105.129L266.241 59.209H276.264V75.2999H270.332L251.957 104.379V104.925H293.378V116.754H237.094ZM270.605 129.027V113.209L270.878 108.061V59.209H284.719V129.027H270.605Z"
    fill="#0057FF" />
  <path
    d="M198.861 129.947C192.998 129.925 187.952 128.482 183.725 125.618C179.521 122.754 176.282 118.607 174.009 113.175C171.759 107.743 170.646 101.209 170.668 93.5724C170.668 85.9588 171.793 79.4702 174.043 74.1065C176.316 68.7429 179.555 64.6634 183.759 61.8679C187.986 59.0497 193.021 57.6406 198.861 57.6406C204.702 57.6406 209.725 59.0497 213.93 61.8679C218.157 64.6861 221.407 68.777 223.68 74.1406C225.952 79.4815 227.077 85.9588 227.055 93.5724C227.055 101.232 225.918 107.777 223.646 113.209C221.396 118.641 218.168 122.788 213.964 125.652C209.759 128.516 204.725 129.947 198.861 129.947ZM198.861 117.709C202.861 117.709 206.055 115.697 208.441 111.675C210.827 107.652 212.009 101.618 211.986 93.5724C211.986 88.277 211.441 83.8679 210.35 80.3452C209.282 76.8224 207.759 74.1747 205.782 72.402C203.827 70.6293 201.521 69.7429 198.861 69.7429C194.884 69.7429 191.702 71.7315 189.316 75.7088C186.93 79.6861 185.725 85.6406 185.702 93.5724C185.702 98.9361 186.236 103.413 187.305 107.004C188.396 110.572 189.93 113.254 191.907 115.05C193.884 116.822 196.202 117.709 198.861 117.709Z"
    fill="#0057FF" />
  <path
    d="M105.938 116.754V105.129L135.085 59.209H145.108V75.2999H139.176L120.801 104.379V104.925H162.222V116.754H105.938ZM139.449 129.027V113.209L139.722 108.061V59.209H153.562V129.027H139.449Z"
    fill="#0057FF" />
  <path
    d="M151.983 223.436L150.762 230.942L149.447 239.008L137.45 312.566H117.83L129.827 239.008L131.142 230.942L132.363 223.436H151.983Z"
    fill="#D2E3FF" />
  <path d="M150.763 230.941L149.448 239.007H129.828L131.143 230.941H150.763Z" fill="#AFCAFF" />
  <path
    d="M248.834 223.436L250.055 230.942L251.37 239.008L263.367 312.566H282.987L270.99 239.008L269.674 230.942L268.454 223.436H248.834Z"
    fill="#D2E3FF" />
  <path d="M250.055 230.941H269.673L270.989 239.007H251.369L250.055 230.941Z" fill="#AFCAFF" />
  <path d="M151.267 202.742H135.711L137.646 188.242H149.334L151.267 202.742Z" fill="#73A3FF" />
  <path
    d="M157.781 180.407C159.172 172.522 153.908 165.002 146.023 163.61C138.138 162.219 130.618 167.483 129.227 175.368C127.835 183.253 133.099 190.773 140.984 192.164C148.869 193.556 156.389 188.292 157.781 180.407Z"
    fill="#73A3FF" />
  <path
    d="M154.238 180.419C155.642 174.497 151.978 168.558 146.056 167.155C140.134 165.751 134.195 169.415 132.791 175.337C131.388 181.259 135.051 187.198 140.974 188.602C146.896 190.005 152.835 186.342 154.238 180.419Z"
    fill="white" />
  <path d="M264.769 202.744H249.215L251.148 188.244H262.836L264.769 202.744Z" fill="#73A3FF" />
  <path
    d="M271.354 180.063C272.562 172.147 267.125 164.751 259.209 163.543C251.294 162.335 243.898 167.772 242.69 175.687C241.481 183.603 246.919 190.999 254.834 192.207C262.749 193.415 270.146 187.978 271.354 180.063Z"
    fill="#73A3FF" />
  <path
    d="M267.915 179.55C268.833 173.534 264.7 167.912 258.683 166.994C252.666 166.076 247.044 170.21 246.127 176.227C245.209 182.243 249.342 187.865 255.359 188.783C261.376 189.701 266.998 185.567 267.915 179.55Z"
    fill="white" />
  <path d="M298.151 195.352H102.668V232.742H298.151V195.352Z" fill="#A1C1FF" />
  <path d="M142.846 195.352L128.659 232.741H103.414L117.602 195.352H142.846Z" fill="#D2E3FF" />
  <path d="M194.596 195.352L180.41 232.741H155.156L169.343 195.352H194.596Z" fill="#D2E3FF" />
  <path d="M246.336 195.352L232.15 232.741H206.904L221.092 195.352H246.336Z" fill="#D2E3FF" />
  <path d="M298.086 195.352L283.9 232.741H258.646L272.833 195.352H298.086Z" fill="#D2E3FF" />
  <path d="M294.193 267.311H106.625V290.973H294.193V267.311Z" fill="#A1C1FF" />
  <path d="M145.176 267.311L131.563 290.973H107.342L120.954 267.311H145.176Z" fill="#D2E3FF" />
  <path d="M194.83 267.311L181.217 290.973H156.986L170.6 267.311H194.83Z" fill="#D2E3FF" />
  <path d="M244.477 267.311L230.865 290.973H206.643L220.256 267.311H244.477Z" fill="#D2E3FF" />
  <path d="M294.132 267.311L280.519 290.973H256.287L269.9 267.311H294.132Z" fill="#D2E3FF" />
</svg>