<svg width="36" height="40" viewBox="0 0 36 40" fill="none" xmlns="http://www.w3.org/2000/svg">
  <g filter="url(#filter0_d_15552_235529)">
    <path
      d="M18.2519 13.8001C18.3765 13.8165 18.4989 13.8494 18.616 13.8982L18.7864 13.983L19.4794 14.3852L22.5247 16.1531L22.9676 16.4102C23.1999 16.5446 23.3934 16.7413 23.5276 16.9783L23.5288 16.9795C23.6638 17.2187 23.7346 17.4904 23.7351 17.7655V18.2878V21.345V22.6031C23.7351 22.8793 23.6641 23.1518 23.5288 23.3916L23.5276 23.3904C23.3936 23.628 23.2014 23.8248 22.9687 23.9596L22.5161 24.2225L19.1856 26.1563L18.7864 26.3881C18.5649 26.5166 18.3165 26.583 18.0652 26.5831C17.8137 26.5831 17.5652 26.5163 17.344 26.3881L16.8109 26.0789L13.5362 24.1794L13.1594 23.9608C12.9271 23.826 12.7345 23.6282 12.6005 23.3904L12.6017 23.3892C12.4676 23.1511 12.3948 22.8794 12.3953 22.6007V21.2474V18.3235V17.768C12.3953 17.4897 12.4674 17.2174 12.6017 16.9795C12.7353 16.7433 12.9283 16.5452 13.1617 16.4102L13.5751 16.1703L16.5111 14.4664L17.344 13.983C17.5652 13.8547 17.8137 13.7879 18.0652 13.7879L18.2519 13.8001ZM14.7699 18.3142V22.0556L18.0652 23.9681L21.1947 22.1519L21.3605 22.0556V21.892V18.3142L18.0641 16.4017L14.7699 18.3142Z"
      fill="white" />
    <path d="M19.1856 24.6742V26.1563V28.7725V29.2163H16.8109V28.7723V26.0789V24.6742H19.1856Z" fill="white" />
    <path
      d="M14.7865 16.9007L13.5991 19.0494L12.3953 18.3235L10.2002 16.9998L9.83309 16.7784L11.0204 14.6297L11.387 14.8508L13.5751 16.1703L14.7865 16.9007Z"
      fill="white" />
    <path
      d="M19.2295 3.14631C19.2295 2.43609 18.6779 1.86011 17.9981 1.86001C17.3181 1.86001 16.7667 2.43605 16.7667 3.14631C16.7668 3.85648 17.3182 4.43261 17.9981 4.43261C18.6778 4.43251 19.2294 3.85645 19.2295 3.14631ZM21.0105 3.14631C21.0104 4.1764 20.5363 5.09102 19.8037 5.66508C19.7005 5.74593 19.5922 5.82002 19.4794 5.88673C19.0419 6.14535 18.5365 6.29299 17.9981 6.29302C17.4573 6.29302 16.9498 6.14411 16.5111 5.8834C16.4 5.8174 16.2933 5.74424 16.1916 5.66451C15.4595 5.09042 14.9858 4.17607 14.9857 3.14631C14.9857 3.03218 14.9916 2.91946 15.0029 2.80847C15.1643 1.22955 16.4438 -0.000395179 17.9981 -0.000395179C19.5524 -0.000302315 20.8322 1.22987 20.9934 2.80893C21.0047 2.91978 21.0105 3.03234 21.0105 3.14631Z"
      fill="white" />
    <path
      d="M34.2155 29.2841C34.2155 28.5739 33.664 27.9979 32.9841 27.9978C32.3042 27.9978 31.7528 28.5738 31.7528 29.2841C31.7529 29.9943 32.3044 30.5704 32.9841 30.5704C33.0217 30.5704 33.0588 30.5686 33.0955 30.5652C33.7101 30.5074 34.1948 29.9777 34.2149 29.3258C34.2153 29.3119 34.2155 29.298 34.2155 29.2841ZM35.9965 29.2841C35.9964 31.0216 34.6475 32.4306 32.9841 32.4308C32.2659 32.4308 31.6064 32.1681 31.0887 31.7297C30.438 31.1786 30.0115 30.35 29.9744 29.4164C29.9727 29.3725 29.9718 29.3284 29.9718 29.2841C29.9718 29.1229 29.9834 28.9646 30.0058 28.8099C30.137 27.9032 30.6386 27.1234 31.3444 26.644C31.3842 26.617 31.4247 26.5909 31.4658 26.5658C31.9116 26.2935 32.4305 26.1374 32.9841 26.1374C33.5097 26.1374 34.0039 26.2781 34.4341 26.5254C35.3653 27.0607 35.9965 28.0954 35.9965 29.2841Z"
      fill="white" />
    <path
      d="M4.2436 29.2841C4.2436 28.5739 3.69212 27.9979 3.01222 27.9978C2.33223 27.9978 1.78083 28.5738 1.78083 29.2841C1.78084 29.2993 1.78109 29.3145 1.7816 29.3296C1.80339 29.9794 2.28681 30.507 2.89969 30.5651C2.93675 30.5686 2.97428 30.5704 3.01222 30.5704C3.69198 30.5703 4.24345 29.9942 4.2436 29.2841ZM6.02459 29.2841C6.02458 29.327 6.02376 29.3697 6.02212 29.4122C5.98618 30.3476 5.55918 31.1781 4.90729 31.7299C4.38967 32.1682 3.73025 32.4307 3.01222 32.4308C1.34873 32.4308 -8.34465e-07 31.0217 -0.000149608 29.2841C-0.000149608 28.0958 0.630534 27.0613 1.56126 26.5258C1.99165 26.2782 2.4862 26.1374 3.01222 26.1374C3.56548 26.1374 4.08395 26.2933 4.52956 26.5653C4.56994 26.5899 4.60971 26.6155 4.64886 26.642C5.35647 27.1214 5.85946 27.9024 5.9907 28.8106C6.01302 28.9651 6.02459 29.1232 6.02459 29.2841Z"
      fill="white" />
    <path
      d="M6.89246 13.5734C7.55753 12.3702 9.03054 11.9579 10.1824 12.6526C10.9601 13.1216 11.3927 13.9753 11.387 14.8508C11.3842 15.272 11.28 15.6983 11.0639 16.0892C10.8482 16.4796 10.5474 16.7867 10.2002 16.9998C9.47702 17.4436 8.55226 17.4795 7.77399 17.0101C6.6221 16.3154 6.22741 14.7768 6.89246 13.5734Z"
      fill="white" />
    <path fill-rule="evenodd" clip-rule="evenodd"
      d="M19.4794 15.3867V14.3852V7.04436C19.021 7.23459 18.5212 7.33917 17.9979 7.33917C17.4726 7.33917 16.9709 7.23376 16.5111 7.0421V14.4664V15.3867H19.4794ZM17.9981 6.29302C17.4573 6.29302 16.9498 6.14411 16.5111 5.8834C16.4 5.8174 16.2933 5.74424 16.1916 5.66451C15.4595 5.09042 14.9858 4.17607 14.9857 3.14631C14.9857 3.03218 14.9916 2.91946 15.0029 2.80847C15.1643 1.22955 16.4438 -0.000395179 17.9981 -0.000395179C19.5524 -0.000302315 20.8322 1.22987 20.9934 2.80893C21.0047 2.91978 21.0105 3.03234 21.0105 3.14631C21.0104 4.1764 20.5363 5.09102 19.8037 5.66508C19.7005 5.74593 19.5922 5.82002 19.4794 5.88673C19.0419 6.14535 18.5365 6.29299 17.9981 6.29302ZM13.9909 3.39583C14.0532 4.50362 14.5272 5.49583 15.2554 6.20787L4.52956 12.4326V25.4009C4.06141 25.201 3.54905 25.0909 3.01206 25.0909C2.50046 25.0909 2.01122 25.1909 1.56126 25.3731V12.131L1.56705 11.959C1.59315 11.5571 1.70901 11.1664 1.90563 10.8181L1.99375 10.6727C2.21116 10.3402 2.50037 10.0647 2.83902 9.86849L13.9909 3.39583ZM5.53659 26.0238C6.31719 26.6842 6.85587 27.6444 6.99216 28.7366L13.5362 24.1794L15.304 22.9483L13.6575 20.3684L12.3953 21.2474L5.53659 26.0238ZM6.02459 29.2841C6.02458 29.327 6.02376 29.3697 6.02212 29.4122C5.98618 30.3476 5.55918 31.1781 4.90729 31.7299C4.38967 32.1682 3.73025 32.4307 3.01222 32.4308C1.34873 32.4308 -8.34465e-07 31.0217 -0.000149608 29.2841C-0.000149608 28.0958 0.630534 27.0613 1.56126 26.5258C1.99165 26.2782 2.4862 26.1374 3.01222 26.1374C3.56548 26.1374 4.08395 26.2933 4.52956 26.5653C4.56994 26.5899 4.60971 26.6155 4.64886 26.642C5.35647 27.1214 5.85946 27.9024 5.9907 28.8106C6.01302 28.9651 6.02459 29.1232 6.02459 29.2841ZM16.7947 38.6273L5.83286 32.267C6.54281 31.5344 6.99255 30.5272 7.02424 29.4105L17.9971 35.7786L28.9717 29.41C29.0033 30.5269 29.453 31.5341 30.163 32.2668L19.2018 38.6273C18.834 38.8403 18.4192 38.953 17.9983 38.9531C17.577 38.9531 17.1626 38.8403 16.7947 38.6273ZM31.0887 31.7297C31.6064 32.1681 32.2659 32.4308 32.9841 32.4308C34.6475 32.4306 35.9964 31.0216 35.9965 29.2841C35.9965 28.0954 35.3653 27.0607 34.4341 26.5254C34.0039 26.2781 33.5097 26.1374 32.9841 26.1374C32.4305 26.1374 31.9116 26.2935 31.4658 26.5658C31.4247 26.5909 31.3842 26.617 31.3444 26.644C30.6386 27.1234 30.137 27.9032 30.0058 28.8099C29.9834 28.9646 29.9718 29.1229 29.9718 29.2841C29.9718 29.3284 29.9727 29.3725 29.9744 29.4164C30.0115 30.35 30.438 31.1786 31.0887 31.7297ZM34.4341 25.3729C33.9843 25.1908 33.4953 25.0909 32.984 25.0909C32.4467 25.0909 31.9341 25.2012 31.4658 25.4012V12.4326L20.7399 6.20839C21.4684 5.49635 21.9426 4.504 22.0049 3.39601L33.1552 9.86728C33.4941 10.0635 33.7841 10.3403 34.0016 10.6727L34.0909 10.8181L34.1697 10.9695C34.343 11.3292 34.4335 11.7272 34.4341 12.131V25.3729ZM19.2295 3.14631C19.2295 2.43609 18.6779 1.86011 17.9981 1.86001C17.3181 1.86001 16.7667 2.43605 16.7667 3.14631C16.7668 3.85648 17.3182 4.43261 17.9981 4.43261C18.6778 4.43251 19.2294 3.85645 19.2295 3.14631ZM1.7816 29.3296C1.80339 29.9794 2.28681 30.507 2.89969 30.5651C2.93675 30.5686 2.97428 30.5704 3.01222 30.5704C3.69198 30.5703 4.24345 29.9942 4.2436 29.2841C4.2436 28.5739 3.69212 27.9979 3.01222 27.9978C2.33223 27.9978 1.78083 28.5738 1.78083 29.2841C1.78084 29.2993 1.78109 29.3145 1.7816 29.3296ZM29.0034 28.7402L22.5161 24.2225L20.6864 22.9483L21.1947 22.1519L21.3605 21.892L22.3329 20.3684L23.7351 21.345L30.4569 26.026C29.6768 26.687 29.1388 27.6477 29.0034 28.7402ZM34.2155 29.2841C34.2155 29.298 34.2153 29.3119 34.2149 29.3258C34.1948 29.9777 33.7101 30.5074 33.0955 30.5652C33.0588 30.5686 33.0217 30.5704 32.9841 30.5704C32.3044 30.5704 31.7529 29.9943 31.7528 29.2841C31.7528 28.5738 32.3042 27.9978 32.9841 27.9978C33.664 27.9979 34.2155 28.5739 34.2155 29.2841Z"
      fill="white" />
    <path fill-rule="evenodd" clip-rule="evenodd"
      d="M25.8889 12.6526C27.0409 11.9579 28.5139 12.3702 29.1789 13.5734C29.8439 14.7768 29.4493 16.3154 28.2973 17.0101C27.5191 17.4795 26.5943 17.4436 25.8711 16.9998L26.2382 16.7784L25.0509 14.6297L24.6844 14.8507C24.6787 13.9753 25.1113 13.1216 25.8889 12.6526ZM24.6844 14.8507L22.5247 16.1531L21.2848 16.9007L22.4722 19.0494L23.7351 18.2878L25.8711 16.9998C25.5239 16.7867 25.2231 16.4796 25.0074 16.0892C24.7913 15.6983 24.6871 15.272 24.6844 14.8507Z"
      fill="white" />
    <path
      d="M26.2382 16.7784L25.0509 14.6297L24.6844 14.8507C24.6871 15.272 24.7913 15.6983 25.0074 16.0892C25.2231 16.4796 25.5239 16.7867 25.8711 16.9998L26.2382 16.7784Z"
      fill="white" />
    <path fill-rule="evenodd" clip-rule="evenodd"
      d="M16.8109 28.7723V29.2163H19.1856V28.7725C18.8351 28.5646 18.4299 28.4459 17.9981 28.4459C17.5664 28.4459 17.1613 28.5646 16.8109 28.7723Z"
      fill="white" />
    <path
      d="M19.1856 29.2163H16.8109V28.7723C16.0817 29.2047 15.5897 30.0232 15.5897 30.9617C15.5897 32.3512 16.668 33.4776 17.9981 33.4776C19.3283 33.4776 20.4065 32.3512 20.4065 30.9617C20.4065 30.0233 19.9147 29.2049 19.1856 28.7725V29.2163Z"
      fill="white" />
  </g>
  <defs>
    <filter id="filter0_d_15552_235529" x="0" y="0" width="35.9966" height="39.4531" filterUnits="userSpaceOnUse"
      color-interpolation-filters="sRGB">
      <feFlood flood-opacity="0" result="BackgroundImageFix" />
      <feColorMatrix in="SourceAlpha" type="matrix" values="0 0 0 0 0 0 0 0 0 0 0 0 0 0 0 0 0 0 127 0"
        result="hardAlpha" />
      <feOffset dy="0.5" />
      <feComposite in2="hardAlpha" operator="out" />
      <feColorMatrix type="matrix" values="0 0 0 0 0.972549 0 0 0 0 0.972549 0 0 0 0 1 0 0 0 0.1 0" />
      <feBlend mode="normal" in2="BackgroundImageFix" result="effect1_dropShadow_15552_235529" />
      <feBlend mode="normal" in="SourceGraphic" in2="effect1_dropShadow_15552_235529" result="shape" />
    </filter>
  </defs>
</svg>